<mxfile host="app.diagrams.net" modified="2023-04-30T18:06:37.294Z" agent="Mozilla/5.0 (Macintosh; Intel Mac OS X 10_15_7) AppleWebKit/537.36 (KHTML, like Gecko) Chrome/112.0.0.0 Safari/537.36" etag="zhKjYIV-WSsqMAmuA8n2" version="21.1.8" type="github">
  <diagram name="Page-1" id="PQJFjrMZRlKzAARL-3N2">
    <mxGraphModel dx="954" dy="1628" grid="1" gridSize="10" guides="1" tooltips="1" connect="1" arrows="1" fold="1" page="1" pageScale="1" pageWidth="850" pageHeight="1100" math="0" shadow="0">
      <root>
        <mxCell id="0" />
        <mxCell id="1" parent="0" />
        <mxCell id="0K0qsCwX2BiiUkNcibeQ-26" value="" style="rounded=0;whiteSpace=wrap;html=1;" vertex="1" parent="1">
          <mxGeometry x="90" y="-60" width="710" height="710" as="geometry" />
        </mxCell>
        <mxCell id="0K0qsCwX2BiiUkNcibeQ-22" value="" style="ellipse;whiteSpace=wrap;html=1;aspect=fixed;" vertex="1" parent="1">
          <mxGeometry x="221" y="31" width="480" height="480" as="geometry" />
        </mxCell>
        <mxCell id="0K0qsCwX2BiiUkNcibeQ-2" value="p1" style="ellipse;whiteSpace=wrap;html=1;aspect=fixed;fillColor=#d5e8d4;strokeColor=#82b366;" vertex="1" parent="1">
          <mxGeometry x="380" y="190" width="20" height="20" as="geometry" />
        </mxCell>
        <mxCell id="0K0qsCwX2BiiUkNcibeQ-5" value="p2" style="ellipse;whiteSpace=wrap;html=1;aspect=fixed;fillColor=#d5e8d4;strokeColor=#82b366;" vertex="1" parent="1">
          <mxGeometry x="520" y="190" width="20" height="20" as="geometry" />
        </mxCell>
        <mxCell id="0K0qsCwX2BiiUkNcibeQ-6" value="p4" style="ellipse;whiteSpace=wrap;html=1;aspect=fixed;fillColor=#d5e8d4;strokeColor=#82b366;" vertex="1" parent="1">
          <mxGeometry x="520" y="330" width="20" height="20" as="geometry" />
        </mxCell>
        <mxCell id="0K0qsCwX2BiiUkNcibeQ-7" value="p3" style="ellipse;whiteSpace=wrap;html=1;aspect=fixed;fillColor=#d5e8d4;strokeColor=#82b366;" vertex="1" parent="1">
          <mxGeometry x="380" y="330" width="20" height="20" as="geometry" />
        </mxCell>
        <mxCell id="0K0qsCwX2BiiUkNcibeQ-8" value="(10, 10, 0)" style="text;html=1;strokeColor=none;fillColor=none;align=center;verticalAlign=middle;whiteSpace=wrap;rounded=0;" vertex="1" parent="1">
          <mxGeometry x="360" y="350" width="60" height="30" as="geometry" />
        </mxCell>
        <mxCell id="0K0qsCwX2BiiUkNcibeQ-9" value="(30, 10, 0)" style="text;html=1;strokeColor=none;fillColor=none;align=center;verticalAlign=middle;whiteSpace=wrap;rounded=0;" vertex="1" parent="1">
          <mxGeometry x="500" y="350" width="60" height="30" as="geometry" />
        </mxCell>
        <mxCell id="0K0qsCwX2BiiUkNcibeQ-10" value="(30, 30, 0)" style="text;html=1;strokeColor=none;fillColor=none;align=center;verticalAlign=middle;whiteSpace=wrap;rounded=0;" vertex="1" parent="1">
          <mxGeometry x="500" y="210" width="60" height="30" as="geometry" />
        </mxCell>
        <mxCell id="0K0qsCwX2BiiUkNcibeQ-11" value="(10, 30, 0)" style="text;html=1;strokeColor=none;fillColor=none;align=center;verticalAlign=middle;whiteSpace=wrap;rounded=0;" vertex="1" parent="1">
          <mxGeometry x="360" y="210" width="60" height="30" as="geometry" />
        </mxCell>
        <mxCell id="0K0qsCwX2BiiUkNcibeQ-14" value="AP" style="ellipse;whiteSpace=wrap;html=1;aspect=fixed;fillColor=#d80073;strokeColor=#A50040;fontColor=#ffffff;" vertex="1" parent="1">
          <mxGeometry x="450" y="270" width="20" height="20" as="geometry" />
        </mxCell>
        <mxCell id="0K0qsCwX2BiiUkNcibeQ-15" value="(20, 20, 0) r = 100" style="text;html=1;strokeColor=none;fillColor=none;align=center;verticalAlign=middle;whiteSpace=wrap;rounded=0;" vertex="1" parent="1">
          <mxGeometry x="430" y="290" width="60" height="30" as="geometry" />
        </mxCell>
        <mxCell id="0K0qsCwX2BiiUkNcibeQ-13" value="c1" style="ellipse;whiteSpace=wrap;html=1;aspect=fixed;fillColor=#1ba1e2;strokeColor=#006EAF;fontColor=#ffffff;" vertex="1" parent="1">
          <mxGeometry x="281" y="430" width="20" height="20" as="geometry" />
        </mxCell>
        <mxCell id="0K0qsCwX2BiiUkNcibeQ-19" value="c2" style="ellipse;whiteSpace=wrap;html=1;aspect=fixed;fillColor=#1ba1e2;strokeColor=#006EAF;fontColor=#ffffff;" vertex="1" parent="1">
          <mxGeometry x="617" y="94" width="20" height="20" as="geometry" />
        </mxCell>
        <mxCell id="0K0qsCwX2BiiUkNcibeQ-20" value="(0, 0, 0)" style="text;html=1;strokeColor=none;fillColor=none;align=center;verticalAlign=middle;whiteSpace=wrap;rounded=0;" vertex="1" parent="1">
          <mxGeometry x="260" y="450" width="60" height="30" as="geometry" />
        </mxCell>
        <mxCell id="0K0qsCwX2BiiUkNcibeQ-21" value="(40, 40, 0)" style="text;html=1;strokeColor=none;fillColor=none;align=center;verticalAlign=middle;whiteSpace=wrap;rounded=0;" vertex="1" parent="1">
          <mxGeometry x="597" y="114" width="60" height="30" as="geometry" />
        </mxCell>
        <mxCell id="0K0qsCwX2BiiUkNcibeQ-23" value="" style="endArrow=none;html=1;rounded=0;" edge="1" parent="1">
          <mxGeometry width="50" height="50" relative="1" as="geometry">
            <mxPoint x="290" y="440" as="sourcePoint" />
            <mxPoint x="290" y="30" as="targetPoint" />
          </mxGeometry>
        </mxCell>
        <mxCell id="0K0qsCwX2BiiUkNcibeQ-24" value="" style="endArrow=none;html=1;rounded=0;" edge="1" parent="1" target="0K0qsCwX2BiiUkNcibeQ-22">
          <mxGeometry width="50" height="50" relative="1" as="geometry">
            <mxPoint x="290" y="440" as="sourcePoint" />
            <mxPoint x="340" y="390" as="targetPoint" />
          </mxGeometry>
        </mxCell>
        <mxCell id="0K0qsCwX2BiiUkNcibeQ-25" value="" style="endArrow=none;html=1;rounded=0;" edge="1" parent="1">
          <mxGeometry width="50" height="50" relative="1" as="geometry">
            <mxPoint x="290" y="440" as="sourcePoint" />
            <mxPoint x="700" y="440" as="targetPoint" />
          </mxGeometry>
        </mxCell>
        <mxCell id="0K0qsCwX2BiiUkNcibeQ-27" value="c3" style="ellipse;whiteSpace=wrap;html=1;aspect=fixed;fillColor=#1ba1e2;strokeColor=#006EAF;fontColor=#ffffff;" vertex="1" parent="1">
          <mxGeometry x="280" y="94" width="20" height="20" as="geometry" />
        </mxCell>
        <mxCell id="0K0qsCwX2BiiUkNcibeQ-28" value="(0, 40, 0)" style="text;html=1;strokeColor=none;fillColor=none;align=center;verticalAlign=middle;whiteSpace=wrap;rounded=0;" vertex="1" parent="1">
          <mxGeometry x="260" y="114" width="60" height="30" as="geometry" />
        </mxCell>
        <mxCell id="0K0qsCwX2BiiUkNcibeQ-29" value="c4" style="ellipse;whiteSpace=wrap;html=1;aspect=fixed;fillColor=#1ba1e2;strokeColor=#006EAF;fontColor=#ffffff;" vertex="1" parent="1">
          <mxGeometry x="620" y="430" width="20" height="20" as="geometry" />
        </mxCell>
        <mxCell id="0K0qsCwX2BiiUkNcibeQ-30" value="(40, 0, 0)" style="text;html=1;strokeColor=none;fillColor=none;align=center;verticalAlign=middle;whiteSpace=wrap;rounded=0;" vertex="1" parent="1">
          <mxGeometry x="600" y="450" width="60" height="30" as="geometry" />
        </mxCell>
        <mxCell id="0K0qsCwX2BiiUkNcibeQ-31" value="c6" style="ellipse;whiteSpace=wrap;html=1;aspect=fixed;fillColor=#1ba1e2;strokeColor=#006EAF;fontColor=#ffffff;" vertex="1" parent="1">
          <mxGeometry x="460" y="430" width="20" height="20" as="geometry" />
        </mxCell>
        <mxCell id="0K0qsCwX2BiiUkNcibeQ-32" value="(20, 0, 0)" style="text;html=1;strokeColor=none;fillColor=none;align=center;verticalAlign=middle;whiteSpace=wrap;rounded=0;" vertex="1" parent="1">
          <mxGeometry x="440" y="450" width="60" height="30" as="geometry" />
        </mxCell>
        <mxCell id="0K0qsCwX2BiiUkNcibeQ-33" value="c5" style="ellipse;whiteSpace=wrap;html=1;aspect=fixed;fillColor=#1ba1e2;strokeColor=#006EAF;fontColor=#ffffff;" vertex="1" parent="1">
          <mxGeometry x="280" y="270" width="20" height="20" as="geometry" />
        </mxCell>
        <mxCell id="0K0qsCwX2BiiUkNcibeQ-34" value="(0, 20, 0)" style="text;html=1;strokeColor=none;fillColor=none;align=center;verticalAlign=middle;whiteSpace=wrap;rounded=0;" vertex="1" parent="1">
          <mxGeometry x="261" y="290" width="60" height="30" as="geometry" />
        </mxCell>
        <mxCell id="0K0qsCwX2BiiUkNcibeQ-35" value="c7" style="ellipse;whiteSpace=wrap;html=1;aspect=fixed;fillColor=#1ba1e2;strokeColor=#006EAF;fontColor=#ffffff;" vertex="1" parent="1">
          <mxGeometry x="618" y="260" width="20" height="20" as="geometry" />
        </mxCell>
        <mxCell id="0K0qsCwX2BiiUkNcibeQ-36" value="(20, 40, 0)" style="text;html=1;strokeColor=none;fillColor=none;align=center;verticalAlign=middle;whiteSpace=wrap;rounded=0;" vertex="1" parent="1">
          <mxGeometry x="600" y="280" width="60" height="30" as="geometry" />
        </mxCell>
        <mxCell id="0K0qsCwX2BiiUkNcibeQ-37" value="c8" style="ellipse;whiteSpace=wrap;html=1;aspect=fixed;fillColor=#1ba1e2;strokeColor=#006EAF;fontColor=#ffffff;" vertex="1" parent="1">
          <mxGeometry x="451" y="90" width="20" height="20" as="geometry" />
        </mxCell>
        <mxCell id="0K0qsCwX2BiiUkNcibeQ-38" value="(20, 40, 0)" style="text;html=1;strokeColor=none;fillColor=none;align=center;verticalAlign=middle;whiteSpace=wrap;rounded=0;" vertex="1" parent="1">
          <mxGeometry x="431" y="110" width="60" height="30" as="geometry" />
        </mxCell>
        <mxCell id="0K0qsCwX2BiiUkNcibeQ-39" value="" style="endArrow=none;html=1;rounded=0;entryX=0;entryY=0;entryDx=0;entryDy=0;" edge="1" parent="1">
          <mxGeometry width="50" height="50" relative="1" as="geometry">
            <mxPoint x="300" y="103" as="sourcePoint" />
            <mxPoint x="619.9289321881347" y="99.9289321881347" as="targetPoint" />
          </mxGeometry>
        </mxCell>
        <mxCell id="0K0qsCwX2BiiUkNcibeQ-40" value="" style="endArrow=none;html=1;rounded=0;entryX=0.5;entryY=0;entryDx=0;entryDy=0;exitX=0.5;exitY=0;exitDx=0;exitDy=0;" edge="1" parent="1" source="0K0qsCwX2BiiUkNcibeQ-29" target="0K0qsCwX2BiiUkNcibeQ-21">
          <mxGeometry width="50" height="50" relative="1" as="geometry">
            <mxPoint x="600" y="230" as="sourcePoint" />
            <mxPoint x="650" y="180" as="targetPoint" />
          </mxGeometry>
        </mxCell>
        <mxCell id="0K0qsCwX2BiiUkNcibeQ-43" value="" style="endArrow=none;html=1;rounded=0;entryX=0.5;entryY=0;entryDx=0;entryDy=0;dashed=1;dashPattern=1 1;jumpSize=4;" edge="1" parent="1" target="0K0qsCwX2BiiUkNcibeQ-22">
          <mxGeometry width="50" height="50" relative="1" as="geometry">
            <mxPoint x="460" y="270" as="sourcePoint" />
            <mxPoint x="510" y="220" as="targetPoint" />
          </mxGeometry>
        </mxCell>
      </root>
    </mxGraphModel>
  </diagram>
</mxfile>
